<?xml version="1.0" standalone="no"?>
<!DOCTYPE svg PUBLIC "-//W3C//DTD SVG 20010904//EN"
 "http://www.w3.org/TR/2001/REC-SVG-20010904/DTD/svg10.dtd">
<svg version="1.0" xmlns="http://www.w3.org/2000/svg"
 width="512.000000pt" height="512.000000pt" viewBox="0 0 512.000000 512.000000"
 preserveAspectRatio="xMidYMid meet">
<metadata>
Created by potrace 1.14, written by Peter Selinger 2001-2017
</metadata>
<g transform="translate(0.000000,512.000000) scale(0.100000,-0.100000)"
fill="#000000" stroke="none">
<path d="M1518 4575 c-2 -1 -37 -5 -78 -9 -412 -34 -759 -391 -787 -812 -5
-84 -4 -93 16 -113 26 -26 72 -27 94 -3 10 11 19 44 23 78 28 296 170 518 409
637 107 53 172 71 300 83 47 4 76 12 89 24 37 36 14 102 -39 113 -14 2 -26 3
-27 2z"/>
<path d="M3697 4567 c-49 -16 -58 -93 -14 -116 12 -6 51 -13 87 -16 389 -34
693 -348 699 -721 1 -36 7 -56 21 -72 29 -31 73 -29 99 4 18 23 20 37 17 93
-22 314 -195 579 -485 740 -37 20 -146 60 -199 72 -71 16 -197 26 -225 16z"/>
<path d="M1400 4285 c-261 -64 -451 -283 -475 -546 -5 -57 -3 -69 15 -92 48
-61 117 -20 121 73 11 229 209 426 446 444 64 5 80 12 91 46 8 22 6 34 -9 59
-18 29 -22 31 -76 30 -32 0 -83 -7 -113 -14z"/>
<path d="M3672 4275 c-23 -29 -23 -68 0 -91 7 -8 36 -16 63 -19 135 -15 229
-55 313 -134 84 -78 137 -189 148 -307 6 -76 24 -104 68 -104 48 0 69 28 69
93 -1 172 -113 376 -262 476 -103 69 -186 98 -302 107 -74 6 -76 6 -97 -21z"/>
<path d="M3088 4095 c-2 -2 -32 -6 -67 -9 -154 -16 -327 -68 -463 -139 -224
-116 -363 -242 -543 -492 l-21 -28 -68 92 c-38 50 -67 93 -65 95 2 1 30 22 62
46 58 43 74 71 63 113 -9 37 -120 150 -177 182 -220 119 -492 19 -580 -214
-24 -65 -31 -155 -18 -226 16 -87 103 -229 148 -241 25 -7 74 14 109 46 20 19
62 44 66 38 1 -2 32 -42 68 -89 l66 -87 -40 -38 c-52 -50 -143 -163 -195 -240
-181 -268 -263 -604 -230 -939 25 -248 123 -497 278 -706 66 -88 195 -221 266
-271 24 -17 43 -36 42 -42 0 -6 -35 -67 -78 -136 l-78 -125 -109 -2 c-60 0
-119 -2 -131 -2 -35 -2 -65 -41 -58 -76 11 -56 20 -58 192 -59 87 0 166 3 174
6 9 4 58 75 109 160 51 84 94 155 96 157 3 3 37 -12 78 -32 256 -126 532 -175
820 -144 139 15 342 78 471 145 l72 38 91 -151 c50 -84 99 -158 108 -166 22
-18 312 -19 348 0 34 19 39 66 11 99 -21 25 -25 25 -153 25 l-132 0 -13 26
c-8 14 -43 74 -79 133 l-66 107 63 50 c60 49 152 140 210 206 70 81 204 310
229 391 4 12 30 41 59 65 272 227 427 488 498 841 15 73 20 319 8 397 -13 92
-15 99 -40 192 -75 281 -252 546 -477 715 -42 33 -97 76 -121 96 -50 43 -134
87 -180 94 -17 3 -63 16 -103 30 -108 37 -269 64 -400 68 -65 2 -119 2 -120 1z"/>
<path d="M1015 2845 c-43 -42 -26 -99 33 -111 24 -5 36 -1 56 19 25 25 26 33
12 75 -7 21 -41 42 -67 42 -5 0 -21 -11 -34 -25z"/>
<path d="M697 1425 c-25 -6 -62 -22 -82 -36 -43 -29 -94 -102 -97 -138 0 -14
-2 -42 -3 -61 -5 -86 63 -183 149 -215 61 -22 95 -24 151 -8 65 19 108 53 142
111 24 39 28 58 28 118 0 61 -4 77 -30 120 -57 91 -159 134 -258 109z m113
-147 c44 -28 52 -124 13 -154 -53 -43 -108 -40 -148 8 -59 69 -1 176 88 162
15 -2 37 -10 47 -16z"/>
</g>
</svg>
